<svg width="15" height="16" viewBox="0 0 15 16" fill="none" xmlns="http://www.w3.org/2000/svg">
<path d="M0.215279 15.0441H3.22222V5.01518H0.215279V15.0441Z" fill="#F36C21"/>
<path d="M0.760056 3.31484C1.04271 3.51531 1.37558 3.62337 1.71667 3.62539C1.945 3.63031 2.17194 3.58691 2.38396 3.49777C2.59598 3.40864 2.78874 3.27559 2.95075 3.10657C3.11276 2.93755 3.24071 2.73601 3.32695 2.51397C3.4132 2.29192 3.456 2.05392 3.45278 1.81414C3.45305 1.45599 3.35227 1.10579 3.16317 0.807724C2.97406 0.509659 2.7051 0.277093 2.39024 0.139376C2.07537 0.00165768 1.72871 -0.0350393 1.394 0.0339163C1.05929 0.102872 0.751535 0.274389 0.509574 0.526822C0.267613 0.779255 0.10229 1.10129 0.0344703 1.45229C-0.0333494 1.80328 -0.000626579 2.1675 0.128509 2.49899C0.257645 2.83048 0.477405 3.11437 0.760056 3.31484Z" fill="#F36C21"/>
<path d="M14.2611 15.0529V8.04314C13.9696 5.60047 12.3378 4.74101 10.8167 4.74101C9.26528 4.74101 8.24861 5.79539 7.95833 6.41226H7.91945V5.02247H5.02778V15.0529H8.03472V9.61476C8.03472 8.16518 8.90972 7.45935 9.80139 7.45935C10.6458 7.45935 11.3 7.9581 11.3 9.57393V15.0529H14.2611Z" fill="#F36C21"/>
</svg>
