<svg width="103" height="14" viewBox="0 0 103 14" fill="none" xmlns="http://www.w3.org/2000/svg">
<path d="M7.78102 10.8356L12.0742 13.4027L10.9349 8.56439L14.7279 5.30902L9.7331 4.88231L7.78102 0.326172L5.82894 4.88231L0.834106 5.30902L4.62017 8.56439L3.48783 13.4027L7.78102 10.8356Z" fill="#FCD34D"/>
<path d="M25.7614 10.8356L30.0546 13.4027L28.9153 8.56439L32.7083 5.30902L27.7134 4.88231L25.7614 0.326172L23.8093 4.88231L18.8145 5.30902L22.6005 8.56439L21.4682 13.4027L25.7614 10.8356Z" fill="#FCD34D"/>
<path d="M43.7416 10.8356L48.0348 13.4027L46.8955 8.56439L50.6885 5.30902L45.6937 4.88231L43.7416 0.326172L41.7895 4.88231L36.7947 5.30902L40.5807 8.56439L39.4484 13.4027L43.7416 10.8356Z" fill="#FCD34D"/>
<path d="M61.7218 10.8356L66.015 13.4027L64.8757 8.56439L68.6687 5.30902L63.6739 4.88231L61.7218 0.326172L59.7697 4.88231L54.7749 5.30902L58.561 8.56439L57.4286 13.4027L61.7218 10.8356Z" fill="#FCD34D"/>
<path d="M79.702 9.54858V3.14795L80.89 5.92156L83.9327 6.1762L81.6263 8.16522L82.3141 11.1109L79.702 9.54858ZM86.649 5.30902L81.6541 4.8892L79.702 0.326172L77.75 4.8892L72.7551 5.30902L76.5412 8.56439L75.4088 13.4027L79.702 10.8356L83.9952 13.4027L82.8559 8.56439L86.649 5.30902Z" fill="#FCD34D"/>
</svg>
