<svg width="508" height="345" viewBox="0 0 508 345" fill="none" xmlns="http://www.w3.org/2000/svg">
<path d="M132.09 0L211.055 133.951C211.055 133.951 230.486 170.126 294.361 170.126H406.193L327.229 39.6891C327.229 39.6891 305.317 0 230.796 0H132.09Z" fill="#FAA41A"/>
<path d="M0.652413 344.207L55.1176 245.039L55.1177 245.039L55.1225 245.029L55.1178 245.027C55.1225 245.029 55.1225 245.029 55.1226 245.029L55.123 245.029L55.1252 245.024L55.1347 245.006C55.1433 244.99 55.1565 244.965 55.1743 244.932C55.2099 244.865 55.2641 244.766 55.3372 244.635C55.4834 244.375 55.7053 243.991 56.0061 243.501C56.6078 242.52 57.5251 241.117 58.7836 239.432C61.3008 236.06 65.1818 231.562 70.6319 227.063C81.5279 218.069 98.7037 209.064 123.822 209.064H233.224L178.371 302.745L178.356 302.77L178.345 302.798L178.361 302.804C178.345 302.798 178.345 302.798 178.345 302.798L178.345 302.799L178.343 302.804L178.334 302.825C178.327 302.844 178.315 302.873 178.299 302.911C178.267 302.988 178.219 303.102 178.153 303.252C178.021 303.553 177.82 303.995 177.544 304.56C176.993 305.689 176.142 307.305 174.95 309.246C172.566 313.128 168.817 318.307 163.361 323.486C152.456 333.839 134.72 344.207 107.388 344.207H0.652413Z" stroke="white" stroke-width="0.772036"/>
<path d="M232.57 171.725L232.217 171.127C232.621 171.488 233.091 171.886 233.635 172.315C236.122 174.276 240.138 176.877 246.279 179.473C258.56 184.666 279.336 189.839 313.379 189.839H416.515L507.325 344.206H406.193H406.172L406.151 344.209L406.193 344.592C406.151 344.209 406.15 344.209 406.15 344.209L406.148 344.209L406.14 344.21L406.104 344.214C406.072 344.217 406.025 344.222 405.961 344.228C405.834 344.24 405.644 344.258 405.394 344.279C404.895 344.32 404.157 344.373 403.204 344.421C401.3 344.516 398.539 344.591 395.121 344.504C388.285 344.33 378.824 343.512 368.327 340.936C347.335 335.784 322.222 323.609 305.649 295.508C289.009 267.292 270.275 235.561 255.702 210.885C248.415 198.546 242.169 187.972 237.744 180.481C235.531 176.736 233.774 173.762 232.57 171.725Z" stroke="white" stroke-width="0.772036"/>
</svg>
