<svg width="24" height="24" viewBox="0 0 24 24" fill="none" xmlns="http://www.w3.org/2000/svg">
<path d="M6.6795 3.32038L7.29277 2.70711C7.6833 2.31658 8.31646 2.31658 8.70698 2.70711L11.2928 5.29289C11.6833 5.68342 11.6833 6.31658 11.2928 6.70711L9.50036 8.49952C9.20148 8.7984 9.12738 9.255 9.31641 9.63307C10.4092 11.8186 12.1813 13.5907 14.3668 14.6835C14.7449 14.8725 15.2015 14.7984 15.5004 14.4995L17.2928 12.7071C17.6833 12.3166 18.3165 12.3166 18.707 12.7071L21.2928 15.2929C21.6833 15.6834 21.6833 16.3166 21.2928 16.7071L20.6795 17.3204C18.5681 19.4317 15.2256 19.6693 12.8369 17.8777L11.6284 16.9714C9.88492 15.6638 8.3361 14.115 7.02845 12.3714L6.12214 11.163C4.3306 8.7743 4.56815 5.43173 6.6795 3.32038Z" fill="#F36C21"/>
</svg>
