<svg width="208" height="48" viewBox="0 0 208 48" fill="none" xmlns="http://www.w3.org/2000/svg">
<path d="M79.1482 13.1915C77.318 12.3282 75.3497 11.9829 72.6907 11.9829C67.7525 11.9829 64.3684 14.8836 64.3684 18.3023C64.3684 21.2031 65.9223 23.2405 69.0648 24.6563L71.8274 25.8304C74.6935 27.039 75.4878 28.1095 75.4878 29.9052C75.4878 31.6318 73.8648 33.0131 71.0331 33.0131C68.823 33.0131 66.682 32.4606 64.8173 31.5282L63.6432 34.3944C65.7842 35.3959 68.3396 35.9139 71.2058 35.9139C75.9713 35.9139 79.7007 33.2203 79.7007 29.2146C79.7007 26.0376 78.1813 24.0692 74.6245 22.5498L72.3108 21.5138C69.2374 20.2361 68.5468 19.2347 68.5468 17.7153C68.5468 16.0577 69.9971 14.8836 72.8979 14.8836C74.9007 14.8836 76.6964 15.3671 78.0087 16.0232L79.1482 13.1915Z" fill="#8E8E8E"/>
<path d="M92.2359 22.1696V19.5106H87.1942C87.1942 17.9912 87.2633 16.2646 87.4705 14.5725L83.4302 15.4358C83.4993 16.8862 83.4993 17.9567 83.4993 19.5106H80.8057V22.1696H83.4647C83.4647 24.8632 83.3266 28.0401 83.3266 30.4919C83.3266 34.0142 85.4331 35.9135 88.2302 35.9135C90.164 35.9135 91.9252 35.4301 93.0993 34.5668L92.2705 32.3222C91.4762 32.8401 90.6475 33.0473 89.5424 33.0473C88.4029 33.0473 87.2978 32.3222 87.1942 30.7682C86.987 28.5581 87.1252 25.3121 87.1252 22.2042H92.2359" fill="#8E8E8E"/>
<path fill-rule="evenodd" clip-rule="evenodd" d="M107.292 27.5222C107.292 30.9755 105.669 33.3582 102.837 33.3582C100.006 33.3582 98.4172 30.9409 98.4172 27.5222C98.4172 24.069 100.04 21.6863 102.837 21.6863C105.669 21.6863 107.292 24.069 107.292 27.5222ZM94.377 27.7294C94.377 32.564 97.5885 35.9136 102.837 35.9136C107.879 35.9136 111.367 32.115 111.367 27.3496C111.367 22.5496 108.017 19.1309 102.837 19.1309C97.7957 19.1309 94.377 22.8949 94.377 27.7294Z" fill="#8E8E8E"/>
<path d="M122.141 21.8244C123.522 21.8244 124.835 22.1352 125.871 22.6186L126.803 19.9942C125.353 19.4071 123.868 19.1309 121.796 19.1309C116.823 19.1309 113.163 22.7913 113.163 27.4532C113.163 33.0474 116.685 35.9136 121.105 35.9136C123.488 35.9136 125.318 35.3956 126.976 34.256L126.078 31.8733C124.938 32.6675 123.626 33.0129 122.279 33.0129C119.344 33.0129 117.168 31.1481 117.168 27.0733C117.168 23.8273 118.999 21.8244 122.141 21.8244Z" fill="#8E8E8E"/>
<path d="M133.537 35.5338C133.433 32.5985 133.364 29.8705 133.364 27.4532C135.401 30.0777 138.82 33.8072 141.134 36.1554L145.14 34.636C142.791 32.564 139.235 28.9381 137.163 26.4518C139.304 24.3798 142.653 21.3755 144.622 19.5108H140.236C138.682 21.2029 135.436 24.4144 133.399 26.4173C133.399 19.2691 133.433 15.7813 133.571 10.8777H129.427C129.6 15.7813 129.635 18.6129 129.635 23.6201C129.635 28.282 129.6 30.941 129.427 35.5338H133.537Z" fill="#8E8E8E"/>
<path d="M151.01 23.6201C151.01 18.6475 151.045 15.8158 151.217 10.8777H147.073C147.246 15.7813 147.281 18.6129 147.281 23.6201C147.281 28.282 147.246 30.941 147.073 35.5338H151.217C151.045 30.941 151.01 28.282 151.01 23.6201Z" fill="#8E8E8E"/>
<path fill-rule="evenodd" clip-rule="evenodd" d="M157.882 27.177C157.882 23.5857 160.161 21.6173 162.786 21.6173C163.96 21.6173 164.754 21.79 165.583 22.1698C165.652 22.9986 165.686 25.0015 165.686 26.8662C165.686 28.1439 165.652 29.5943 165.583 30.5957C164.547 32.2533 163.269 32.8749 161.853 32.8749C159.574 32.9094 157.882 31.1483 157.882 27.177ZM169.45 27.177C169.45 23.8274 169.485 22.1008 169.727 18.8547L166.964 19.6835C165.755 19.3037 164.65 19.0965 162.924 19.0965C157.951 19.0965 153.876 22.6533 153.876 27.9367C153.876 33.0821 156.846 35.8792 160.127 35.8792C162.302 35.8792 164.374 34.9468 165.617 32.9094L165.928 35.5339H169.692C169.45 32.0461 169.45 30.5957 169.45 27.177Z" fill="#8E8E8E"/>
<path d="M177.462 19.5108H173.698C173.871 22.7914 173.905 24.3108 173.905 27.5914C173.905 30.6648 173.871 32.495 173.698 35.5338H177.842C177.704 33.1856 177.669 31.8389 177.669 29.5252C177.669 27.695 177.704 25.6921 177.842 24.3799C178.809 22.8605 180.155 22.1353 181.537 22.1353C183.229 22.1353 184.334 23.1713 184.472 25.2777C184.541 26.3482 184.576 28.3511 184.576 30.2159C184.576 32.3223 184.541 33.4964 184.403 35.5338H188.512C188.34 33.3583 188.34 32.1842 188.34 30.0432C188.34 28.2821 188.443 27.0389 188.443 24.9324C188.443 21.2374 186.302 19.0964 183.194 19.0964C180.846 19.0964 179.085 20.0979 177.773 22.1008L177.462 19.5108Z" fill="#8E8E8E"/>
<path fill-rule="evenodd" clip-rule="evenodd" d="M195.384 27.177C195.384 23.5856 197.698 21.6173 200.322 21.6173C201.496 21.6173 202.325 21.7899 203.154 22.1698C203.189 23.1712 203.223 25.0014 203.223 26.8662C203.223 28.1439 203.188 29.5942 203.119 30.5957C202.083 32.2532 200.806 32.8748 199.39 32.8748C197.111 32.9093 195.384 31.1482 195.384 27.177ZM203.05 10.8777C203.189 14.1237 203.258 16.6446 203.258 19.4417C202.463 19.2345 201.669 19.1309 200.46 19.1309C195.488 19.1309 191.413 22.6878 191.413 27.9712C191.413 33.1165 194.383 35.9137 197.629 35.9137C199.804 35.9137 201.876 34.9813 203.119 32.9439L203.396 35.5683H207.125C206.953 30.9755 206.918 28.282 206.918 23.6547C206.918 18.682 206.918 15.8503 207.125 10.9122H203.05V10.8777Z" fill="#8E8E8E"/>
<path d="M0 48H48V0H0V48ZM22.7914 7.73525C16.9209 8.2187 12.3281 13.1914 12.3281 19.2691C12.3281 25.3468 16.9554 30.3194 22.7914 30.8029V32.6676C16.6101 32.2187 11.6029 27.4878 10.6705 21.4101V21.5137C10.6705 28.5237 16.023 34.2561 22.8259 34.7396V37.1568C16.023 36.7424 10.4288 31.9079 8.77122 25.4158C9.46187 32.8748 15.4014 38.7453 22.8259 39.1942V42.1295C13.364 41.646 5.83597 33.7036 5.83597 23.9655C5.83597 14.2273 13.3295 6.35395 22.7914 5.83597V7.73525ZM25.1741 42.164V40.2993C31.0446 39.8158 35.6374 34.8432 35.6374 28.7655C35.6374 22.6878 31.0446 17.7151 25.1741 17.2317V15.3669C31.3554 15.8158 36.3626 20.5468 37.3295 26.6245V26.5209C37.3295 19.5108 31.977 13.7784 25.1741 13.295V10.8777C31.977 11.2921 37.5712 16.1266 39.2288 22.6187C38.5381 15.1597 32.5986 9.28921 25.1741 8.84029V5.90504C34.636 6.38849 42.164 14.3309 42.164 24.0691C42.164 33.7381 34.6705 41.6806 25.1741 42.164Z" fill="#8E8E8E"/>
</svg>
