<svg width="21" height="15" viewBox="0 0 21 15" fill="none" xmlns="http://www.w3.org/2000/svg">
<path fill-rule="evenodd" clip-rule="evenodd" d="M18.7166 0.449751C19.6161 0.691925 20.3253 1.40115 20.5675 2.30065C21.0172 3.94397 20.9999 7.369 20.9999 7.369C20.9999 7.369 20.9999 10.7767 20.5675 12.42C20.3253 13.3195 19.6161 14.0288 18.7166 14.2709C17.0732 14.7034 10.5 14.7034 10.5 14.7034C10.5 14.7034 3.94397 14.7034 2.28335 14.2536C1.38385 14.0115 0.674626 13.3022 0.432453 12.4027C0 10.7767 0 7.3517 0 7.3517C0 7.3517 0 3.94397 0.432453 2.30065C0.674626 1.40115 1.40115 0.674626 2.28335 0.432453C3.92667 0 10.5 0 10.5 0C10.5 0 17.0732 0 18.7166 0.449751ZM13.8731 7.35169L8.40689 10.4999V4.20343L13.8731 7.35169Z" fill="#F36C21"/>
</svg>
